<?xml version="1.0" encoding="utf-8"?>
<!-- Generator: Adobe Illustrator 18.0.0, SVG Export Plug-In . SVG Version: 6.00 Build 0)  -->
<!DOCTYPE svg PUBLIC "-//W3C//DTD SVG 1.1//EN" "http://www.w3.org/Graphics/SVG/1.1/DTD/svg11.dtd">
<svg version="1.1" id="Layer_1" xmlns="http://www.w3.org/2000/svg"  x="0px" y="0px"
	 viewBox="0 0 1795.8 1190.5" enable-background="new 0 0 1795.8 1190.5" xml:space="preserve">
<path fill="#DADADA" d="M594.4,772.5c3.9,20.8-9.8,40.8-30.6,44.7l-257.3,48c-20.8,3.9-40.8-9.8-44.7-30.6l0,0
	c-3.9-20.8,9.8-40.8,30.6-44.7l257.3-48C570.5,738,590.5,751.7,594.4,772.5L594.4,772.5z"/>
<path fill="#DADADA" d="M402.9,838.2l4.3,45.4c1.3,13.9,16.9,23.9,34.8,22.2c17.9-1.7,31.3-14.4,30-28.3l-4.3-45.4L402.9,838.2z"/>
<path fill="none" stroke="#DADADA" stroke-width="13" stroke-miterlimit="10" d="M342.8,835.7c-528.9-1.9-159.5,135.7-159.5,135.7"
	/>
<path fill="#BE1A4A" d="M76.9,59.3h228.7v740.3c0,71.2,53.9,69.9,101.3,69.9H817v173.3H326c-130.3,0-249.2-39.6-249.2-191.5V59.3z"
	/>
<path fill="#BE1A4A" d="M905.8,871.2H951l67.5,170.9h-42.3l-14.8-37.9h-68.1l-15,37.9h-42.7L905.8,871.2z M952,975.2l-23.4-61
	l-25,61H952z"/>
<path fill="#BE1A4A" d="M1052.7,871.2h55.2l34.6,116.8l34.5-116.8h55.1l19.5,170.9h-39.3L1198.6,928l-33.5,114.1h-44.4L1085.9,928
	l-12.3,114.1h-39.3L1052.7,871.2z"/>
<path fill="#BE1A4A" d="M1277.5,871.2h89.4c26,0,57.7,6.7,57.7,52.7c0,52.1-33.8,55.9-57.7,55c-11.4-0.4-48.2-4-49.6-4.7v67.8h-39.8
	V871.2z M1363.7,950.1c12.6,0,20.7-5.3,20.7-25.8c-0.3-20.2-10.8-24-20.7-24h-46.5v49.9H1363.7z"/>
<path fill="#BE1A4A" d="M1450.3,906.7c0-29.7,25.5-35.8,45.1-35.5c0,0,73.2,1.7,91.4,3.7v27h-82.1c-14.8,0-14.8,6.8-14.8,13.1v26.7
	l83.9,2.5V971l-83.9,2.2v26.7c0.1,12.4,9.4,12.1,17.6,12.1h79.2v26.8c-16.1,1.8-88.6,4-88.6,4c-18.5,0.7-48-2.8-48-34.3V906.7z"/>
<path fill="#BE1A4A" d="M1609.4,871.2h90.9c32.4,0,56.6,12.5,56.6,53.3c0,42.3-21.5,47.3-33.1,50.3l39.4,67.3h-44.7l-34.4-64.7
	l-34.9-3.3v67.9h-39.8V871.2z M1696.4,948.5c13.8,0,20.4-3.3,20.4-24c0-19.4-8-24.2-20.4-24.2h-47.1v48.2H1696.4z"/>
<radialGradient id="SVGID_1_" cx="388.6124" cy="66.4465" r="41.3293" gradientTransform="matrix(0.9831 -0.1834 0.1834 0.9831 -89.3058 147.7232)" gradientUnits="userSpaceOnUse">
	<stop  offset="0" style="stop-color:#FFF38B"/>
	<stop  offset="0.985" style="stop-color:#FFE625"/>
</radialGradient>
<path fill="url(#SVGID_1_)" d="M315.4,197.7c7.3-1.4,12.1-8.4,10.8-15.7l-15.9-85.3c-1.4-7.3-8.4-12.1-15.7-10.8l0,0
	c-7.3,1.4-12.1,8.4-10.8,15.7l15.9,85.3C301,194.2,308.1,199,315.4,197.7L315.4,197.7z"/>
<radialGradient id="SVGID_2_" cx="533.3459" cy="105.2378" r="43.8265" gradientTransform="matrix(0.9831 -0.1834 0.1834 0.9831 -89.3058 147.7232)" gradientUnits="userSpaceOnUse">
	<stop  offset="0" style="stop-color:#FFF38B"/>
	<stop  offset="0.985" style="stop-color:#FFE625"/>
</radialGradient>
<path fill="url(#SVGID_2_)" d="M435.4,207c7,2.5,14.7-1.2,17.2-8.2l28.9-81.8c2.5-7-1.2-14.7-8.2-17.2l0,0c-7-2.5-14.7,1.2-17.2,8.2
	l-28.9,81.8C424.7,196.8,428.4,204.5,435.4,207L435.4,207z"/>
<radialGradient id="SVGID_3_" cx="639.2961" cy="211.1996" r="43.8316" gradientTransform="matrix(0.9831 -0.1834 0.1834 0.9831 -89.3058 147.7232)" gradientUnits="userSpaceOnUse">
	<stop  offset="0" style="stop-color:#FFF38B"/>
	<stop  offset="0.985" style="stop-color:#FFE625"/>
</radialGradient>
<path fill="url(#SVGID_3_)" d="M534.7,275.1c4.8,5.6,13.4,6.3,19,1.5l65.9-56.5c5.6-4.8,6.3-13.4,1.5-19l0,0
	c-4.8-5.6-13.4-6.3-19-1.5l-65.9,56.4C530.6,260.9,529.9,269.5,534.7,275.1L534.7,275.1z"/>
<radialGradient id="SVGID_4_" cx="678.0729" cy="355.937" r="41.3263" gradientTransform="matrix(0.9831 -0.1834 0.1834 0.9831 -89.3058 147.7232)" gradientUnits="userSpaceOnUse">
	<stop  offset="0" style="stop-color:#FFF38B"/>
	<stop  offset="0.985" style="stop-color:#FFE625"/>
</radialGradient>
<path fill="url(#SVGID_4_)" d="M586.7,383.7c1.4,7.3,8.4,12.1,15.7,10.8l85.3-15.9c7.3-1.4,12.1-8.4,10.8-15.7l0,0
	c-1.4-7.3-8.4-12.1-15.7-10.8L597.5,368C590.2,369.4,585.3,376.4,586.7,383.7L586.7,383.7z"/>
<radialGradient id="SVGID_5_" cx="243.8767" cy="105.2287" r="43.8268" gradientTransform="matrix(0.9831 -0.1834 0.1834 0.9831 -89.3058 147.7232)" gradientUnits="userSpaceOnUse">
	<stop  offset="0" style="stop-color:#FFF38B"/>
	<stop  offset="0.985" style="stop-color:#FFE625"/>
</radialGradient>
<path fill="url(#SVGID_5_)" d="M206.7,249.7c5.6-4.8,6.3-13.4,1.5-19l-56.4-65.9c-4.8-5.6-13.4-6.3-19-1.5l0,0
	c-5.6,4.8-6.3,13.4-1.5,19l56.4,65.9C192.6,253.8,201.1,254.5,206.7,249.7L206.7,249.7z"/>
<radialGradient id="SVGID_6_" cx="137.9212" cy="211.1771" r="43.8296" gradientTransform="matrix(0.9831 -0.1834 0.1834 0.9831 -89.3058 147.7232)" gradientUnits="userSpaceOnUse">
	<stop  offset="0" style="stop-color:#FFF38B"/>
	<stop  offset="0.985" style="stop-color:#FFE625"/>
</radialGradient>
<path fill="url(#SVGID_6_)" d="M138.6,349c2.5-7-1.2-14.7-8.2-17.2l-81.9-28.9c-7-2.5-14.7,1.2-17.2,8.2l0,0
	c-2.5,7,1.3,14.7,8.2,17.2l81.8,28.9C128.4,359.6,136.2,355.9,138.6,349L138.6,349z"/>
<radialGradient id="SVGID_7_" cx="99.1359" cy="355.9084" r="41.3275" gradientTransform="matrix(0.9831 -0.1834 0.1834 0.9831 -89.3058 147.7232)" gradientUnits="userSpaceOnUse">
	<stop  offset="0" style="stop-color:#FFF38B"/>
	<stop  offset="0.985" style="stop-color:#FFE625"/>
</radialGradient>
<path fill="url(#SVGID_7_)" d="M129.3,469c-1.4-7.3-8.4-12.1-15.7-10.8l-85.3,15.9c-7.3,1.4-12.1,8.4-10.8,15.7l0,0
	c1.4,7.3,8.4,12.1,15.7,10.8l85.3-15.9C125.8,483.4,130.7,476.3,129.3,469L129.3,469z"/>
<radialGradient id="SVGID_8_" cx="388.5965" cy="367.6055" r="195.6788" gradientTransform="matrix(0.9831 -0.1834 0.1834 0.9831 -89.3058 147.7232)" gradientUnits="userSpaceOnUse">
	<stop  offset="0" style="stop-color:#FFF38B"/>
	<stop  offset="0.985" style="stop-color:#FFE625"/>
</radialGradient>
<path fill="url(#SVGID_8_)" d="M323.2,239.8c-103,19.2-171,118.3-151.7,221.3c10.2,54.8,43,99.6,87,126.7c0.1,0,6.5,3.7,9.6,5.5
	c20.5,12.1,34.8,33.9,39.5,59.2l179.1-33.4c-4.7-25.3,0.7-50.8,15.5-69.4c2.3-2.8,6.9-8.5,7-8.6c31.2-41.1,45.7-94.8,35.4-149.6
	C525.3,288.5,426.2,220.6,323.2,239.8z"/>
<g>
	<path fill="none" stroke="#2B2523" stroke-width="3" stroke-miterlimit="10" d="M264.8,503.1c-23.9-57.3,7.4-251.6,91.5-87.1"/>
	<path fill="none" stroke="#2B2523" stroke-width="3" stroke-miterlimit="10" d="M472.6,464.3c1.6-62.1-97.6-232.1-116.8-48.2"/>
</g>
<path fill="#DADADA" d="M380.5,723.5l8.4,44.9c2.6,13.8,19,22.3,36.7,19c17.7-3.3,29.9-17.1,27.4-30.9l-8.4-44.9L380.5,723.5z"/>
<path fill="#DADADA" d="M501.8,671.3c4.3-3.5,6.8-9.1,5.7-14.9c-1.1-5.8-5.4-10.2-10.7-11.9c4.6-3.4,7.2-9.3,6.1-15.3
	c-1.6-8.4-9.7-14-18.1-12.4L309,649.6c-8.4,1.6-14,9.7-12.4,18.1c1.1,5.8,5.4,10.2,10.7,11.9c-4.6,3.4-7.2,9.3-6.1,15.3
	c1.1,6,5.7,10.5,11.2,12.1c-4.3,3.5-6.7,9.1-5.7,15c1.6,8.4,9.7,14,18.1,12.4l175.8-32.8c8.4-1.6,14-9.7,12.4-18.1
	C511.9,677.4,507.3,672.9,501.8,671.3z"/>
<polygon fill="#9B9A9B" points="154.9,1002.3 154.9,1002.3 154.9,1002.3 154.9,1002.3 156.3,1009.9 156.3,1009.9 156.3,1009.9 
	156.3,1009.9 "/>
<circle fill="#DADADA" cx="580.6" cy="584.7" r="26.2"/>
<path fill="none" stroke="#DADADA" stroke-width="13" stroke-miterlimit="10" d="M575.1,782c0,0,372.6-170.5,1.9-201.8"/>
<g>
	
		<radialGradient id="SVGID_9_" cx="491.7516" cy="560.7335" r="64.7195" gradientTransform="matrix(0.9831 -0.1834 0.1834 0.9831 -89.3058 147.7232)" gradientUnits="userSpaceOnUse">
		<stop  offset="0" style="stop-color:#FFF38B"/>
		<stop  offset="0.985" style="stop-color:#FFE625"/>
	</radialGradient>
	<path fill="url(#SVGID_9_)" d="M426.8,550l22.9,122.6c1.7,9,10.4,15,19.4,13.3l81.7-15.2c9-1.7,15-10.4,13.3-19.4l-22.9-122.6
		L426.8,550z"/>
	<path fill="#FDC300" d="M423.8,533.7l3,16.3l22.9,122.6c1.7,9,10.4,15,19.4,13.3l81.7-15.2c9-1.7,15-10.4,13.3-19.4l-22.9-122.6
		l-3-16.3l-8.2,1.5l3,16.3l22.9,122.6c0.8,4.1-2.1,8.9-6.6,9.7l-81.7,15.2c-4.5,0.8-8.9-2.6-9.7-6.7L435,548.5l-3-16.3L423.8,533.7z
		"/>
	<path fill="#F3F4F6" d="M542.7,536.8l1.1,5.7l0.5,2.5l1.5,8.2l8.2-1.5c4.5-0.8,8.8,1.7,9.7,6.6l4.6,24.5l4.6,24.5
		c0.8,4.1-2.1,8.9-6.6,9.7l-8.2,1.5l1.5,8.2l0.3,1.6l1.2,6.5l16.3-3c9-1.7,15-10.4,13.3-19.4l-3-16.3l-3-16.3l-3-16.3l-3-16.3
		c-1.7-9-10.4-15-19.4-13.3L542.7,536.8z"/>
	<path fill="#C7CACE" d="M550.9,535.3c9-1.7,17.7,4.3,19.4,13.3l3,16.3l3,16.3l3,16.3l3,16.3c1.7,9-4.3,17.7-13.3,19.4l8.2-1.5
		c9-1.7,15-10.4,13.3-19.4l-3-16.3l-3-16.3l-3-16.3l-3-16.3c-1.7-9-10.4-15-19.4-13.3L550.9,535.3z"/>
	<path fill="#FDC300" d="M448.2,664.4l1.5,8.2c1.7,9,10.4,15,19.4,13.3l81.7-15.2c9-1.7,15-10.4,13.3-19.4l-1.5-8.2
		c1.7,9-4.3,17.7-13.3,19.4l-81.7,15.2C458.5,679.4,449.8,673.4,448.2,664.4z"/>
	
		<rect x="426" y="524.4" transform="matrix(-0.983 0.1836 -0.1836 -0.983 953.045 1002.0908)" fill="#C7CACE" width="8.3" height="41.6"/>
	
		<rect x="531.5" y="504.6" transform="matrix(-0.983 0.1835 -0.1835 -0.983 1157.7804 935.366)" fill="#C7CACE" width="8.3" height="33.3"/>
	<path fill="#FDC300" d="M454.4,561.8c-4.5,0.8-7.6,4.8-6.6,9.7l16.8,89.9c0.8,4.1,5.2,7.5,9.7,6.6l-1.5-8.2l-16.8-89.9L454.4,561.8
		z M487.1,555.7c-4.5,0.8-7.6,4.8-6.6,9.7l16.8,89.9c0.8,4.1,5.2,7.5,9.7,6.7l-1.5-8.2l-16.8-89.9L487.1,555.7z M519.8,549.6
		c-4.5,0.8-7.6,4.8-6.7,9.7l16.8,89.9c0.8,4.1,5.2,7.5,9.7,6.6l-1.5-8.2l-16.8-89.9L519.8,549.6z"/>
	<path fill="#F3F4F6" d="M431.9,532.1l0.5,2.5l2.6,13.9l3.7,19.6c1.9,0.5,4.1,0.9,6.2,0.5c5.7-1.1,9.6-6,9.9-12
		c1.6,0.6,3.3,1.1,4.9,0.8c1.5-0.3,2.9-1.4,4.2-1.6c0,0-0.3,0-0.1,0.9c0.8,4.1,5.2,7.5,9.7,6.7c2.1-0.4,3.8-1.6,4.9-3.5
		c2.3,1.3,4.8,1.6,7.4,1.2c5.4-1,9.1-5.9,9.8-11.1c0.3-0.1,0.6,0.7,0.9,0.7c4.5-0.8,7.4-5.6,6.6-9.7c0.8,4.1,5.2,7.5,9.7,6.6
		c4.5-0.8,7.4-5.6,6.6-9.7l0.8-0.1c2.4,3.8,7.6,7,13,6c0.8-0.1,1.4-1.1,2.1-1.2l-2.3-12.3l-2.6-13.9l-0.5-2.5L431.9,532.1z"/>
</g>
<path fill="#DADADA" d="M161.3,975.5c-2.3-12.1,5.7-23.7,17.8-26c12.1-2.3,23.7,5.7,26,17.8c2.3,12.1-5.7,23.7-17.8,26
	C175.2,995.6,163.6,987.6,161.3,975.5z"/>
<path fill="none" stroke="#DADADA" stroke-width="12" stroke-miterlimit="10" d="M66.5,870c-47.9,40.2,116.7,101.5,116.7,101.5"/>
<g>
	<path fill="#DADADA" d="M819.8,1100.4c5.2,1.3,13.1,3.5,13.2-6.4v-40.2h5.2v40.2c0,3.3-0.1,8.2-3.7,10.4c-3.8,2.4-11.3,2.2-15-0.2
		L819.8,1100.4z"/>
	<path fill="#DADADA" d="M864.7,1053.8h5.2l18.2,51.9H882l-4.5-14.5h-20.7l-4.7,14.5h-6.5L864.7,1053.8z M875.7,1086l-8.4-24.2
		l-8.6,24.2H875.7z"/>
	<path fill="#DADADA" d="M912.3,1053.8h5.2l18.2,51.9h-6.2l-4.5-14.5h-20.7l-4.7,14.5h-6.5L912.3,1053.8z M923.2,1086l-8.4-24.2
		l-8.6,24.2H923.2z"/>
	<path fill="#DADADA" d="M941.7,1053.8h22.1c6.7,0,12,3.8,12,15.6c0,13.5-7,14.6-9,14.9l10.9,21.4h-5.7l-10.9-21.2l-14.2-1v22.2
		h-5.2V1053.8z M963.9,1078.8c3.3,0,6.7,0,6.7-9.4c0-9.3-3.5-10.3-6.7-10.3H947v19.7H963.9z"/>
	<path fill="#DADADA" d="M998.6,1053.2c3.7,0,13,1,18,1.9v4.2c-0.4,0-11-0.9-18-0.9c-9.4,0-11.3,6.8-11.3,21.1
		c0,15.7,2.9,21.1,11.6,21.3c5.4,0.1,13.6-3.3,13.6-3.3v-14.2h-11.9v-3.5c2.8-0.8,6.6-1.8,12.3-1.8c1.5,0,3.1,0.1,4.8,0.2v27.4h-4
		l-1.1-3.5c-2.7,1.5-7.4,3.8-13.8,3.8c-14.7,0.1-16.9-11.6-16.9-26.6C982,1065.3,984.5,1053.2,998.6,1053.2z"/>
	<path fill="#DADADA" d="M1025.9,1053.8h22.1c6.7,0,12,3.8,12,15.6c0,13.5-7,14.6-9,14.9l10.9,21.4h-5.7l-10.9-21.2l-14.2-1v22.2
		h-5.2V1053.8z M1048,1078.8c3.3,0,6.7,0,6.7-9.4c0-9.3-3.5-10.3-6.7-10.3h-16.9v19.7H1048z"/>
	<path fill="#DADADA" d="M1087,1053.5c12.3,0,20,2.3,20,26.7c0,22.9-7.2,25.9-20,25.9c-12.8,0-20.1-2.3-20.1-25.9
		C1066.9,1055.8,1075.1,1053.5,1087,1053.5z M1087,1100.7c11.1,0,14.7-3,14.7-20.6c0-21.2-5.1-21.4-14.7-21.4
		c-9.4,0-14.9,0.2-14.9,21.4C1072.1,1098.3,1075.8,1100.7,1087,1100.7z"/>
	<path fill="#DADADA" d="M1114.5,1063c0-6.9,4.2-9.4,8.9-9.2l22.4,1.1v4.1h-22.4c-3.7,0-3.7,2.1-3.7,4v14.2l23.3,0.7v4.2l-23.3,0.7
		v14.2c0.1,3.8,2.3,3.7,4.4,3.7h21.7v4l-21.7,1.2c-4.7,0.3-9.6-0.9-9.6-8.9V1063z"/>
	<path fill="#DADADA" d="M1153.3,1053.8h21.3c5.6,0,12.4,2.3,12.4,15c0,14.8-7.2,15.7-12.4,15.7c-2.8,0-15.7-1.2-16.1-1.4v22.5h-5.2
		V1053.8z M1174.6,1079.3c3.7,0,7.1-1.1,7.1-10.5c-0.1-9.3-4.6-9.7-7.1-9.7h-16.1v20.2H1174.6z"/>
	<path fill="#DADADA" d="M1213.6,1053.8h19.3c16,0,18.4,15.5,18.4,26.2c0,11.8-4.8,25.7-18.4,25.7h-19.3V1053.8z M1232.9,1100.2
		c9.4,0,13.2-9.4,13.2-20.4c0-15.2-5-20.8-13.2-20.8h-14v41.2H1232.9z"/>
	<path fill="#DADADA" d="M1258.8,1063c0-6.9,4.2-9.4,8.9-9.2l22.4,1.1v4.1h-22.4c-3.7,0-3.7,2.1-3.7,4v14.2l23.3,0.7v4.2l-23.3,0.7
		v14.2c0.1,3.8,2.3,3.7,4.4,3.7h21.7v4l-21.7,1.2c-4.7,0.3-9.6-0.9-9.6-8.9V1063z"/>
	<path fill="#DADADA" d="M1297.5,1053.8h22.1c6.7,0,12,3.8,12,15.6c0,13.5-7,14.6-9,14.9l10.9,21.4h-5.7l-10.9-21.2l-14.2-1v22.2
		h-5.2V1053.8z M1319.7,1078.8c3.3,0,6.7,0,6.7-9.4c0-9.3-3.5-10.3-6.7-10.3h-16.9v19.7H1319.7z"/>
	<path fill="#DADADA" d="M1374.3,1053.2c3.7,0,12.3,0.9,17.3,1.8v4.2c-0.1,0-10.8-0.7-17.3-0.7c-8.9,0-12.1,4-12.1,21.3
		c0,11.6,2.6,21.1,12.1,21.1c7.4,0,17.3-0.5,17.3-0.5v4.2c-5,0.9-13.6,1.6-17.3,1.6c-13.1,0-17.3-11.3-17.3-26.5
		C1357,1063,1360.1,1053.2,1374.3,1053.2z"/>
	<path fill="#DADADA" d="M1400.1,1100c0-1.1,0.6-1.8,1.7-1.8h3.8c1.3,0,1.8,0.6,1.8,1.8v4c0,1.3-0.8,1.6-1.8,1.6h-3.8
		c-1,0-1.7-0.6-1.7-1.6V1100z"/>
	<path fill="#DADADA" d="M1417.9,1066c0-10.3,6.1-12.6,14-12.6c3.8,0,15,1.3,17.7,1.7v4.3c-4.5-0.3-17.7-0.7-17.7-0.7
		c-5-0.2-8.8,0.3-8.8,7.4v4.7c0,6.5,3,6.9,7.2,6.9h10.1c9.4,0,11.1,6.4,11.1,12.2v4.8c0,10.1-7.3,11.6-14.3,11.6
		c-3.5,0-14.5-1.2-17.7-1.8v-4.3c2.8,0.3,11.1,0.8,17.7,0.8c2.9,0,9.1-0.1,9.1-6.4v-4.8c0-4-1.2-6.9-5.8-6.9h-9.9
		c-11.3,0-12.6-6.2-12.6-12.2V1066z"/>
	<path fill="#DADADA" d="M1460.8,1100c0-1.1,0.6-1.8,1.7-1.8h3.8c1.3,0,1.8,0.6,1.8,1.8v4c0,1.3-0.8,1.6-1.8,1.6h-3.8
		c-1,0-1.7-0.6-1.7-1.6V1100z"/>
	<path fill="#DADADA" d="M1483,1053.8l15.2,43.5l15.9-43.5h5.7l-19.1,51.9h-5.2l-18.2-51.9H1483z"/>
	<path fill="#DADADA" d="M1520.1,1100c0-1.1,0.6-1.8,1.7-1.8h3.8c1.3,0,1.8,0.6,1.8,1.8v4c0,1.3-0.8,1.6-1.8,1.6h-3.8
		c-1,0-1.7-0.6-1.7-1.6V1100z"/>
	<path fill="#DADADA" d="M1573.4,1053.8h5.2l18.2,51.9h-6.2l-4.5-14.5h-20.7l-4.7,14.5h-6.5L1573.4,1053.8z M1584.3,1086l-8.4-24.2
		l-8.6,24.2H1584.3z"/>
	<path fill="#DADADA" d="M1604.3,1053.8h5.2v43c0,3.8,2.3,3.7,4.4,3.7h21.7v5.2h-21.7c-4.7,0-9.6-0.9-9.6-8.9V1053.8z"/>
	<path fill="#DADADA" d="M1642.3,1053.8h21.3c5.6,0,12.4,2.3,12.4,15c0,14.8-7.2,15.7-12.4,15.7c-2.8,0-15.7-1.2-16.1-1.4v22.5h-5.2
		V1053.8z M1663.7,1079.3c3.7,0,7.1-1.1,7.1-10.5c-0.1-9.3-4.6-9.7-7.1-9.7h-16.1v20.2H1663.7z"/>
	<path fill="#DADADA" d="M1685,1053.8h5.2v24.2h24.8v-24.2h5.2v51.9h-5.2v-22.5h-24.8v22.5h-5.2V1053.8z"/>
	<path fill="#DADADA" d="M1746.8,1053.8h5.2l18.2,51.9h-6.2l-4.5-14.5h-20.7l-4.7,14.5h-6.5L1746.8,1053.8z M1757.7,1086l-8.4-24.2
		l-8.6,24.2H1757.7z"/>
</g>
<g>
</g>
<g>
</g>
<g>
</g>
<g>
</g>
<g>
</g>
<g>
</g>
</svg>
